# xmcd CD database file
#
# Track frame offsets:
#	187
#	23070
#	49880
#	67720
#	81252
#	96740
#	114707
#	134792
#	154977
#	168627
#	198792
#	216502
#
# Disc length: 3154 seconds
#
# Revision: 0
# Processed by: cddbd v1.5.1PL0 Copyright (c) Steve Scherf et al.
# Submitted via: CDex 1.51
#
DISCID=b40c500c
DTITLE=Abbey Lincoln - That's Him !
DYEAR=1957
DGENRE=Jazz
TTITLE0=Strong Man
TTITLE1=Happiness Is Just A Thing Called Joe
TTITLE2=My Man
TTITLE3=Tender As A Rose
TTITLE4=That's Him
TTITLE5=I Must Have That Man
TTITLE6=Porgy
TTITLE7=When A Woman Loves A Man
TTITLE8=Can't Help Lovin' Dat Man
TTITLE9=Don't Explain
TTITLE10=I Must Have That Man (take 3)
TTITLE11=Porgy (take 1)
EXTD=YEAR: 1957
EXTT0=
EXTT1=
EXTT2=
EXTT3=
EXTT4=
EXTT5=
EXTT6=
EXTT7=
EXTT8=
EXTT9=
EXTT10=
EXTT11=
PLAYORDER=
